<?xml version="1.0" standalone="no"?>
<!DOCTYPE svg PUBLIC "-//W3C//DTD SVG 20010904//EN"
 "http://www.w3.org/TR/2001/REC-SVG-20010904/DTD/svg10.dtd">
<svg version="1.0" xmlns="http://www.w3.org/2000/svg"
 width="217.000000pt" height="217.000000pt" viewBox="0 0 217.000000 217.000000"
 preserveAspectRatio="xMidYMid meet">
<metadata>
Created by potrace 1.11, written by Peter Selinger 2001-2013
</metadata>
<g transform="translate(0.000000,217.000000) scale(0.100000,-0.100000)"
fill="#000000" stroke="none">
<path d="M1134 2025 c-4 -8 -17 -15 -30 -15 -25 0 -18 12 -147 -260 -121 -257
-151 -319 -179 -380 -17 -36 -53 -112 -81 -170 -27 -58 -67 -143 -89 -190 -22
-47 -59 -125 -83 -175 -40 -85 -87 -185 -168 -355 -19 -41 -60 -127 -90 -190
l-54 -115 100 -3 c82 -2 102 0 109 13 5 8 19 15 31 15 24 0 18 -12 190 350 40
85 80 170 88 188 7 17 16 33 19 33 21 5 750 3 750 -3 0 -3 42 -93 93 -200 51
-106 115 -239 142 -295 l49 -103 99 0 c84 0 98 2 93 15 -4 12 3 15 29 15 19 0
35 2 35 4 0 3 -25 57 -147 316 -25 52 -69 147 -98 210 -29 63 -71 153 -92 200
-22 47 -55 117 -73 155 -18 39 -57 121 -86 184 -30 62 -54 115 -54 116 0 1
-31 67 -68 146 -37 79 -106 226 -152 326 -74 159 -88 183 -108 183 -12 0 -25
-7 -28 -15z m20 -517 c13 -29 46 -100 73 -158 57 -119 127 -268 150 -320 9
-19 18 -38 20 -41 1 -4 -121 -7 -272 -8 l-274 0 8 22 c10 24 61 135 148 317
30 63 68 143 84 178 17 34 32 62 35 62 2 0 15 -24 28 -52z"/>
</g>
</svg>
